/vscmnt/brussel_pixiu_data/_data_brussel/112/vsc11236/PredSimResults/SUBJ10_Falisse2022/weightedWalking/worker_05.mot
version=1
nRows=4
nColumns=124
inDegrees=yes
endheader
                time	         pelvis_tilt	         pelvis_list	     pelvis_rotation	           pelvis_tx	           pelvis_ty	           pelvis_tz	       hip_flexion_r	     hip_adduction_r	      hip_rotation_r	        knee_angle_r	       ankle_angle_r	    subtalar_angle_r	         mtp_angle_r	       hip_flexion_l	     hip_adduction_l	      hip_rotation_l	        knee_angle_l	       ankle_angle_l	    subtalar_angle_l	         mtp_angle_l	    lumbar_extension	      lumbar_bending	     lumbar_rotation	          arm_flex_r	           arm_add_r	           arm_rot_r	        elbow_flex_r	          arm_flex_l	           arm_add_l	           arm_rot_l	        elbow_flex_l	glut_med1_r/activation	glut_med2_r/activation	glut_med3_r/activation	glut_min1_r/activation	glut_min2_r/activation	glut_min3_r/activation	semimem_r/activation	semiten_r/activation	bifemlh_r/activation	bifemsh_r/activation	    sar_r/activation	add_long_r/activation	add_brev_r/activation	add_mag1_r/activation	add_mag2_r/activation	add_mag3_r/activation	    tfl_r/activation	   pect_r/activation	   grac_r/activation	glut_max1_r/activation	glut_max2_r/activation	glut_max3_r/activation	iliacus_r/activation	  psoas_r/activation	quad_fem_r/activation	    gem_r/activation	   peri_r/activation	rect_fem_r/activation	vas_med_r/activation	vas_int_r/activation	vas_lat_r/activation	med_gas_r/activation	lat_gas_r/activation	 soleus_r/activation	tib_post_r/activation	flex_dig_r/activation	flex_hal_r/activation	tib_ant_r/activation	per_brev_r/activation	per_long_r/activation	per_tert_r/activation	ext_dig_r/activation	ext_hal_r/activation	glut_med1_l/activation	glut_med2_l/activation	glut_med3_l/activation	glut_min1_l/activation	glut_min2_l/activation	glut_min3_l/activation	semimem_l/activation	semiten_l/activation	bifemlh_l/activation	bifemsh_l/activation	    sar_l/activation	add_long_l/activation	add_brev_l/activation	add_mag1_l/activation	add_mag2_l/activation	add_mag3_l/activation	    tfl_l/activation	   pect_l/activation	   grac_l/activation	glut_max1_l/activation	glut_max2_l/activation	glut_max3_l/activation	iliacus_l/activation	  psoas_l/activation	quad_fem_l/activation	    gem_l/activation	   peri_l/activation	rect_fem_l/activation	vas_med_l/activation	vas_int_l/activation	vas_lat_l/activation	med_gas_l/activation	lat_gas_l/activation	 soleus_l/activation	tib_post_l/activation	flex_dig_l/activation	flex_hal_l/activation	tib_ant_l/activation	per_brev_l/activation	per_long_l/activation	per_tert_l/activation	ext_dig_l/activation	ext_hal_l/activation	 ercspn_r/activation	 ercspn_l/activation	 intobl_r/activation	 intobl_l/activation	 extobl_r/activation	 extobl_l/activation	
          1.83267084	         -6.16242363	          1.59771945	         -3.30691475	          1.97928451	          0.82164072	          0.00506820	        -14.85606488	          1.64780404	         10.59591146	         -6.62667465	          4.62413636	         -3.82505159	         30.40463486	         33.80010447	          3.63331420	          2.56301532	        -10.87752722	         12.84410928	         -8.16026359	          0.24198823	         -3.43975484	         -0.04960919	          2.17367820	         29.74747264	        -13.47543464	         19.38771540	         69.12879336	        -23.60075102	        -14.00003047	         18.27356467	         12.28817192	          0.12552013	          0.08627491	          0.07116082	          0.17382165	          0.14593920	          0.11754459	          0.01000041	          0.01000004	          0.01000004	          0.02711226	          0.07223175	          0.09045705	          0.01000047	          0.02098746	          0.01000197	          0.01000012	          0.21638823	          0.03732361	          0.02526131	          0.02098820	          0.01743869	          0.01664482	          0.25488554	          0.35910934	          0.02306560	          0.02102500	          0.09963634	          0.07534886	          0.01000019	          0.01000024	          0.01000037	          0.21097566	          0.28254782	          0.30717305	          0.28652070	          0.35578821	          0.34939408	          0.01000001	          0.01000000	          0.01000000	          0.01000001	          0.01000000	          0.01000005	          0.02410925	          0.01000004	          0.01000002	          0.01119575	          0.01000010	          0.01000005	          0.11063944	          0.03846788	          0.03911782	          0.01000001	          0.01448740	          0.05009318	          0.15599942	          0.18085263	          0.13091310	          0.06765024	          0.01000534	          0.02098724	          0.07745979	          0.02486163	          0.01927117	          0.06312886	          0.01862010	          0.01776748	          0.13704102	          0.01013507	          0.01161035	          0.01743728	          0.10815656	          0.10456016	          0.09120282	          0.01000000	          0.01000001	          0.01000000	          0.01743731	          0.01448729	          0.01448728	          0.32621430	          0.25649315	          0.17995550	          0.11658496	          0.41164761	          0.18027264	          0.01158817	          0.03972367	          0.01743727	          0.02984899	          0.01000000	          0.06694469	
          1.84488865	         -6.14391441	          1.81341837	         -3.60155971	          1.99583593	          0.82012523	          0.00478325	        -14.70480852	          1.43331206	         10.14286314	         -8.99459637	          4.46340383	         -3.22674609	         31.67378264	         33.12982393	          3.98747203	          2.85524816	        -11.58141683	         12.06295860	         -8.58342731	          0.22787143	         -3.28723982	         -0.54495702	          2.24047065	         29.81821758	        -13.49710943	         19.36951633	         71.82431538	        -25.45797058	        -13.99785418	         18.27285875	         12.63237357	          0.16443700	          0.07167893	          0.05912183	          0.14441456	          0.12124922	          0.09765840	          0.01215026	          0.01203614	          0.01203656	          0.02252541	          0.06001159	          0.11075867	          0.05158582	          0.01743708	          0.01000677	          0.01000043	          0.17977969	          0.03100935	          0.02098763	          0.01743746	          0.01448847	          0.01382893	          0.21176402	          0.29835524	          0.01916337	          0.01746801	          0.08277987	          0.06260134	          0.01000001	          0.01000001	          0.01000001	          0.17528281	          0.23474640	          0.29505740	          0.25623587	          0.30352350	          0.31065971	          0.01000001	          0.01000000	          0.01000000	          0.01000001	          0.01000000	          0.01000005	          0.09546822	          0.01000002	          0.01000002	          0.01000004	          0.01000004	          0.01000004	          0.09192147	          0.03195994	          0.04651988	          0.03989520	          0.01203658	          0.04161843	          0.12960746	          0.15025600	          0.10876525	          0.05620520	          0.01000008	          0.01743679	          0.06435544	          0.11133288	          0.04692796	          0.05244877	          0.01546995	          0.01476158	          0.16990169	          0.01586334	          0.11437501	          0.01448725	          0.08985864	          0.08687068	          0.07577314	          0.01743729	          0.01743728	          0.01743724	          0.01448727	          0.01203635	          0.01203634	          0.34614561	          0.25960057	          0.14951065	          0.11184181	          0.47353747	          0.14977414	          0.02470421	          0.03300322	          0.01448724	          0.02479914	          0.01000001	          0.05561899	
          1.85710645	         -6.12242856	          2.02352452	         -3.87714508	          2.01248719	          0.81863912	          0.00447267	        -14.41328148	          1.22592343	          9.67083137	        -11.60399021	          4.21319456	         -2.63537043	         32.72382399	         32.34776580	          4.32252619	          3.16174805	        -12.18282733	         11.35026105	         -9.00713285	          0.22743300	         -3.13255393	         -1.04059537	          2.29737293	         29.77173911	        -13.51992031	         19.32175272	         74.33235873	        -27.16121645	        -13.96756891	         18.39343075	         12.85394904	          0.19531982	          0.05955229	          0.04911960	          0.14726870	          0.10073629	          0.08113656	          0.01998037	          0.01000010	          0.01000028	          0.01871457	          0.04985884	          0.11332884	          0.06498657	          0.01448724	          0.01000432	          0.03190054	          0.14936458	          0.02576328	          0.01743696	          0.01448743	          0.01203736	          0.01148943	          0.17593779	          0.24787952	          0.01592131	          0.01451278	          0.06877518	          0.05201045	          0.01740586	          0.01702391	          0.01194740	          0.14562847	          0.19503201	          0.27101260	          0.23967470	          0.27991395	          0.28497596	          0.01000000	          0.01000007	          0.01000007	          0.01000003	          0.01000000	          0.01000004	          0.18493404	          0.18164498	          0.19565114	          0.05720481	          0.08880818	          0.14260535	          0.07637020	          0.04869255	          0.03864967	          0.03314577	          0.01000029	          0.03457743	          0.10768048	          0.12483573	          0.09036446	          0.06260094	          0.01000007	          0.01448691	          0.07514932	          0.15261372	          0.09527112	          0.06191062	          0.01285275	          0.01226422	          0.14115777	          0.01317977	          0.09502514	          0.01203630	          0.07465637	          0.07217391	          0.06295385	          0.01448725	          0.01448725	          0.01448721	          0.01203631	          0.01000004	          0.01000004	          0.43231514	          0.30000340	          0.16477883	          0.37585999	          0.50743359	          0.26378800	          0.04003918	          0.05750498	          0.01203629	          0.02060363	          0.00999999	          0.04620937	
          1.86932426	         -6.09984215	          2.22295417	         -4.13248771	          2.02900172	          0.81736559	          0.00411993	        -13.95634071	          1.02390220	          9.19127707	        -14.44881810	          3.86428127	         -2.03476274	         33.40359377	         31.55854938	          4.65826060	          3.46232295	        -12.74220076	         10.57497118	         -9.42049622	          0.22178968	         -2.99126778	         -1.52904365	          2.34542387	         29.64049145	        -13.53533186	         19.25931685	         76.55957172	        -28.65024912	        -13.90567001	         18.61466769	         12.93494010	          0.16228874	          0.04947724	          0.04080955	          0.16788197	          0.08369374	          0.06740988	          0.02814375	          0.01046424	          0.01128696	          0.01554844	          0.04142373	          0.13051137	          0.11458611	          0.01203647	          0.01203672	          0.05301733	          0.12409509	          0.02140473	          0.01448699	          0.01203650	          0.01000099	          0.01000028	          0.14617265	          0.20594327	          0.01322775	          0.01205752	          0.05713980	          0.04321133	          0.02635561	          0.02476511	          0.01971596	          0.12099105	          0.16203650	          0.24476740	          0.22465682	          0.26711677	          0.26947557	          0.01000003	          0.01000002	          0.01000001	          0.01000007	          0.01000002	          0.01000016	          0.24153641	          0.26396302	          0.28377293	          0.08077298	          0.10976319	          0.13888326	          0.06344990	          0.05223308	          0.03668625	          0.02753818	          0.01000004	          0.02872763	          0.08946312	          0.10371608	          0.09628502	          0.07975708	          0.01000004	          0.01203612	          0.06243570	          0.19750643	          0.13317882	          0.08855235	          0.01067833	          0.01018936	          0.11727693	          0.01095062	          0.07894909	          0.01000001	          0.10683203	          0.10583018	          0.09902560	          0.01203630	          0.01203630	          0.01203627	          0.01000002	          0.01000003	          0.01000002	          0.49858556	          0.30319958	          0.16150438	          0.44731264	          0.54069438	          0.29576219	          0.06131755	          0.07088418	          0.00999999	          0.01711791	          0.00999999	          0.03839167	
